<?xml version="1.0" encoding="UTF-8" standalone="no"?>
<!DOCTYPE svg PUBLIC "-//W3C//DTD SVG 1.1//EN"
 "http://www.w3.org/Graphics/SVG/1.1/DTD/svg11.dtd">
<!-- Generated by graphviz version 12.1.1 (20240910.0053)
 -->
<!-- Title: INFRA Pages: 1 -->
<svg width="444pt" height="296pt"
 viewBox="0.00 0.00 443.96 296.00" xmlns="http://www.w3.org/2000/svg" xmlns:xlink="http://www.w3.org/1999/xlink">
<g id="graph0" class="graph" transform="scale(1 1) rotate(0) translate(4 292)">
<title>INFRA</title>
<polygon fill="white" stroke="none" points="-4,4 -4,-292 439.96,-292 439.96,4 -4,4"/>
<!-- NeptuneSecurityGroup -->
<g id="node1" class="node">
<title>NeptuneSecurityGroup</title>
<path fill="#e6e6e6" stroke="black" stroke-width="2" d="M177.49,-72C177.49,-72 12,-72 12,-72 6,-72 0,-66 0,-60 0,-60 0,-12 0,-12 0,-6 6,0 12,0 12,0 177.49,0 177.49,0 183.49,0 189.49,-6 189.49,-12 189.49,-12 189.49,-60 189.49,-60 189.49,-66 183.49,-72 177.49,-72"/>
<text text-anchor="middle" x="94.74" y="-40.2" font-family="Arial" font-size="14.00">NeptuneSecurityGroup</text>
<text text-anchor="middle" x="94.74" y="-23.4" font-family="Arial" font-size="14.00">(AWS::EC2::SecurityGroup)</text>
</g>
<!-- NeptuneSubnetGroup -->
<g id="node2" class="node">
<title>NeptuneSubnetGroup</title>
<path fill="#e6e6e6" stroke="black" stroke-width="2" d="M423.96,-72C423.96,-72 219.53,-72 219.53,-72 213.53,-72 207.53,-66 207.53,-60 207.53,-60 207.53,-12 207.53,-12 207.53,-6 213.53,0 219.53,0 219.53,0 423.96,0 423.96,0 429.96,0 435.96,-6 435.96,-12 435.96,-12 435.96,-60 435.96,-60 435.96,-66 429.96,-72 423.96,-72"/>
<text text-anchor="middle" x="321.74" y="-40.2" font-family="Arial" font-size="14.00">NeptuneSubnetGroup</text>
<text text-anchor="middle" x="321.74" y="-23.4" font-family="Arial" font-size="14.00">(AWS::Neptune::DBSubnetGroup)</text>
</g>
<!-- NeptuneDBCluster -->
<g id="node3" class="node">
<title>NeptuneDBCluster</title>
<path fill="#ffcfb3" stroke="black" stroke-width="2" d="M302.49,-173.45C302.49,-177.07 260.03,-180 207.74,-180 155.46,-180 113,-177.07 113,-173.45 113,-173.45 113,-114.55 113,-114.55 113,-110.93 155.46,-108 207.74,-108 260.03,-108 302.49,-110.93 302.49,-114.55 302.49,-114.55 302.49,-173.45 302.49,-173.45"/>
<path fill="none" stroke="black" stroke-width="2" d="M302.49,-173.45C302.49,-169.84 260.03,-166.91 207.74,-166.91 155.46,-166.91 113,-169.84 113,-173.45"/>
<text text-anchor="middle" x="207.74" y="-148.2" font-family="Arial" font-size="14.00">NeptuneDBCluster</text>
<text text-anchor="middle" x="207.74" y="-131.4" font-family="Arial" font-size="14.00">(AWS::Neptune::DBCluster)</text>
</g>
<!-- NeptuneDBCluster&#45;&gt;NeptuneSecurityGroup -->
<g id="edge2" class="edge">
<title>NeptuneDBCluster&#45;&gt;NeptuneSecurityGroup</title>
<path fill="none" stroke="black" d="M170.12,-107.7C160.59,-98.76 150.25,-89.06 140.37,-79.8"/>
<polygon fill="black" stroke="black" points="143,-77.47 133.31,-73.18 138.21,-82.57 143,-77.47"/>
</g>
<!-- NeptuneDBCluster&#45;&gt;NeptuneSubnetGroup -->
<g id="edge1" class="edge">
<title>NeptuneDBCluster&#45;&gt;NeptuneSubnetGroup</title>
<path fill="none" stroke="black" d="M245.7,-107.7C255.32,-98.76 265.75,-89.06 275.72,-79.8"/>
<polygon fill="black" stroke="black" points="277.9,-82.55 282.84,-73.17 273.13,-77.42 277.9,-82.55"/>
</g>
<!-- PrimaryDBInstance -->
<g id="node4" class="node">
<title>PrimaryDBInstance</title>
<path fill="#ffcfb3" stroke="black" stroke-width="2" d="M198.78,-281.45C198.78,-285.07 154.39,-288 99.74,-288 45.1,-288 0.71,-285.07 0.71,-281.45 0.71,-281.45 0.71,-222.55 0.71,-222.55 0.71,-218.93 45.1,-216 99.74,-216 154.39,-216 198.78,-218.93 198.78,-222.55 198.78,-222.55 198.78,-281.45 198.78,-281.45"/>
<path fill="none" stroke="black" stroke-width="2" d="M198.78,-281.45C198.78,-277.84 154.39,-274.91 99.74,-274.91 45.1,-274.91 0.71,-277.84 0.71,-281.45"/>
<text text-anchor="middle" x="99.74" y="-256.2" font-family="Arial" font-size="14.00">PrimaryDBInstance</text>
<text text-anchor="middle" x="99.74" y="-239.4" font-family="Arial" font-size="14.00">(AWS::Neptune::DBInstance)</text>
</g>
<!-- PrimaryDBInstance&#45;&gt;NeptuneDBCluster -->
<g id="edge3" class="edge">
<title>PrimaryDBInstance&#45;&gt;NeptuneDBCluster</title>
<path fill="none" stroke="black" d="M135.71,-215.7C144.72,-206.85 154.5,-197.26 163.86,-188.08"/>
<polygon fill="black" stroke="black" points="166.17,-190.71 170.86,-181.2 161.27,-185.71 166.17,-190.71"/>
</g>
<!-- ReplicaDBInstance -->
<g id="node5" class="node">
<title>ReplicaDBInstance</title>
<path fill="#ffcfb3" stroke="black" stroke-width="2" d="M414.78,-281.45C414.78,-285.07 370.39,-288 315.74,-288 261.1,-288 216.71,-285.07 216.71,-281.45 216.71,-281.45 216.71,-222.55 216.71,-222.55 216.71,-218.93 261.1,-216 315.74,-216 370.39,-216 414.78,-218.93 414.78,-222.55 414.78,-222.55 414.78,-281.45 414.78,-281.45"/>
<path fill="none" stroke="black" stroke-width="2" d="M414.78,-281.45C414.78,-277.84 370.39,-274.91 315.74,-274.91 261.1,-274.91 216.71,-277.84 216.71,-281.45"/>
<text text-anchor="middle" x="315.74" y="-256.2" font-family="Arial" font-size="14.00">ReplicaDBInstance</text>
<text text-anchor="middle" x="315.74" y="-239.4" font-family="Arial" font-size="14.00">(AWS::Neptune::DBInstance)</text>
</g>
<!-- ReplicaDBInstance&#45;&gt;NeptuneDBCluster -->
<g id="edge4" class="edge">
<title>ReplicaDBInstance&#45;&gt;NeptuneDBCluster</title>
<path fill="none" stroke="black" d="M279.78,-215.7C270.76,-206.85 260.99,-197.26 251.63,-188.08"/>
<polygon fill="black" stroke="black" points="254.22,-185.71 244.63,-181.2 249.32,-190.71 254.22,-185.71"/>
</g>
</g>
</svg>
